<svg width="276" height="276" viewBox="0 0 276 276" fill="none" xmlns="http://www.w3.org/2000/svg">
<g clip-path="url(#clip0_1_33)">
<path d="M17.21 106.648C15.8623 105.373 16.3992 103.118 18.1764 102.588L113.71 74.0922L218.109 42.9525C219.883 42.4324 221.559 44.0215 221.13 45.822L172.813 248.776C172.397 250.523 170.299 251.2 168.943 250.082L168.814 249.968L17.21 106.648Z" stroke="#00D3AB" stroke-width="16"/>
<path d="M42.0167 64.033C40.563 61.848 42.0199 58.9084 44.6391 58.742L252.844 45.5122C255.464 45.3458 257.281 48.077 256.116 50.4285L163.47 237.355C162.305 239.707 159.031 239.914 157.577 237.729L157.576 237.73L157.398 237.459L42.0167 64.033Z" stroke="#B4C0D3" stroke-width="14"/>
</g>
<defs>
<clipPath id="clip0_1_33">
<rect width="276" height="276" fill="white"/>
</clipPath>
</defs>
</svg>
